<svg xmlns="http://www.w3.org/2000/svg" xmlns:xlink="http://www.w3.org/1999/xlink" width="416" height="416" viewBox="0 0 416 416">
  <defs>
    <linearGradient id="linear-gradient" x1="0.919" y1="0.049" x2="0.09" y2="0.924" gradientUnits="objectBoundingBox">
      <stop offset="0" stop-color="#d0f"/>
      <stop offset="0" stop-color="#f90ef9"/>
      <stop offset="1" stop-color="#1d30d9"/>
    </linearGradient>
    <clipPath id="clip-path">
      <rect width="60" height="248" fill="none"/>
    </clipPath>
  </defs>
  <g id="Group_1" data-name="Group 1" transform="translate(-701 -298)">
    <g id="Rectangle_1" data-name="Rectangle 1" transform="translate(701 298)" stroke="#707070" stroke-width="1" fill="url(#linear-gradient)">
      <rect width="416" height="416" rx="66" stroke="none"/>
      <rect x="0.5" y="0.5" width="415" height="415" rx="65.5" fill="none"/>
    </g>
    <g id="Repeat_Grid_1" data-name="Repeat Grid 1" transform="translate(794 385)" clip-path="url(#clip-path)">
      <g transform="translate(-809 -380)">
        <g id="Ellipse_1" data-name="Ellipse 1" transform="translate(809 380)" fill="#fff" stroke="#707070" stroke-width="1">
          <ellipse cx="30" cy="33" rx="30" ry="33" stroke="none"/>
          <ellipse cx="30" cy="33" rx="29.5" ry="32.5" fill="none"/>
        </g>
      </g>
      <g transform="translate(-809 -294)">
        <g id="Ellipse_1-2" data-name="Ellipse 1" transform="translate(809 380)" fill="#fff" stroke="#707070" stroke-width="1">
          <ellipse cx="30" cy="33" rx="30" ry="33" stroke="none"/>
          <ellipse cx="30" cy="33" rx="29.5" ry="32.5" fill="none"/>
        </g>
      </g>
      <g transform="translate(-809 -208)">
        <g id="Ellipse_1-3" data-name="Ellipse 1" transform="translate(809 380)" fill="#fff" stroke="#707070" stroke-width="1">
          <ellipse cx="30" cy="33" rx="30" ry="33" stroke="none"/>
          <ellipse cx="30" cy="33" rx="29.5" ry="32.5" fill="none"/>
        </g>
      </g>
    </g>
    <path id="Path_1" data-name="Path 1" d="M939.778,562.592l-19.525,35.886,83.352,54.414,107.548-231.151-35.671-17.249-86.9,188.72Z" transform="translate(-35 -22.491)" fill="#fff" stroke="#707070" stroke-width="1"/>
  </g>
</svg>
